<?xml version="1.0" encoding="UTF-8"?>
<svg width="48px" height="48px" viewBox="0 0 48 48" version="1.1" xmlns="http://www.w3.org/2000/svg" xmlns:xlink="http://www.w3.org/1999/xlink">
    <!-- Generator: Sketch 63.1 (92452) - https://sketch.com -->
    <title>icon48*48/咨询投诉</title>
    <desc>Created with Sketch.</desc>
    <g id="icon48*48/咨询投诉" stroke="none" stroke-width="1" fill="none" fill-rule="evenodd">
        <g>
            <circle id="椭圆形" fill="#FAAD14" opacity="0.1" cx="24" cy="24" r="24"></circle>
            <g id="icon_离线咨询" transform="translate(15.000000, 15.000000)" fill-rule="nonzero">
                <rect id="矩形" fill="#000000" opacity="0" x="0" y="0" width="18" height="18"></rect>
                <path d="M17.4375,1.66351318 L17.4375,15.7254639 L10.7583618,15.7254639 L9,17.8348389 L7.24163818,15.7254639 L0.5625,15.7254639 L0.5625,1.66351318 L17.4375,1.66351318 Z M16.0301514,3.07086182 L1.96820068,3.07086182 L1.96820068,14.3197632 L7.90081787,14.3197632 L9,15.6381226 L10.0991821,14.3197632 L16.0301514,14.3197632 L16.0301514,3.07086182 Z M9,9.39898682 L9,10.8046875 L4.78125,10.8046875 L4.78125,9.39898682 L9,9.39898682 Z M13.21875,6.5859375 L13.21875,7.99163818 L4.78125,7.99163818 L4.78125,6.5859375 L13.21875,6.5859375 Z" id="形状结合" fill="#FAAD14"></path>
            </g>
        </g>
    </g>
</svg>