<?xml version="1.0" encoding="UTF-8"?>
<svg width="48px" height="48px" viewBox="0 0 48 48" version="1.1" xmlns="http://www.w3.org/2000/svg" xmlns:xlink="http://www.w3.org/1999/xlink">
    <!-- Generator: Sketch 63.1 (92452) - https://sketch.com -->
    <title>icon48*48/我的物流</title>
    <desc>Created with Sketch.</desc>
    <g id="icon48*48/我的物流" stroke="none" stroke-width="1" fill="none" fill-rule="evenodd">
        <g>
            <circle id="椭圆形" fill-opacity="0.1" fill="#FF6D3B" cx="24" cy="24" r="24"></circle>
            <g id="快递服务" transform="translate(15.000000, 15.000000)" fill-rule="nonzero">
                <rect id="矩形" fill="#000000" opacity="0" x="0" y="0" width="18" height="18"></rect>
                <path d="M18.0017578,2.25 L18.0017578,13.5 L16.4636719,13.5 C16.2808594,14.7708984 15.1980469,15.75 13.8761719,15.75 C12.5542969,15.75 11.4714844,14.7708984 11.2886719,13.5 L11.2886719,13.5 L6.71308594,13.5 C6.52851563,14.7708984 5.44746094,15.75 4.12558594,15.75 C2.80371094,15.75 1.72089844,14.7708984 1.53808594,13.5 L1.53808594,13.5 L8.13571432e-13,13.5 L8.13571432e-13,7.72734375 L1.67167969,4.5 L6.75,4.5 L6.75,2.25 L18.0017578,2.25 Z M4.12558594,12.0005859 C3.50507813,12.0005859 3.00058594,12.5050781 3.00058594,13.1255859 C3.00058594,13.7460937 3.50507813,14.2505859 4.12558594,14.2505859 C4.74609375,14.2505859 5.25058594,13.7460937 5.25058594,13.1255859 C5.25058594,12.5050781 4.74609375,12.0005859 4.12558594,12.0005859 Z M13.8744141,12.0005859 C13.2539063,12.0005859 12.7494141,12.5050781 12.7494141,13.1255859 C12.7494141,13.7460937 13.2539063,14.2505859 13.8744141,14.2505859 C14.4966797,14.2505859 14.9994141,13.7460937 14.9994141,13.1255859 C14.9994141,12.5050781 14.4949219,12.0005859 13.8744141,12.0005859 Z M6.74824219,6.00117187 L2.58222656,6.00117187 L1.49941406,8.09296875 L1.49941406,12.0005859 L1.76308594,12.0005859 C2.18496094,11.1164063 3.0796875,10.5011719 4.12558594,10.5011719 C5.17148438,10.5011719 6.06621094,11.1164063 6.48808594,12.0005859 L6.48808594,12.0005859 L6.74824219,12.0005859 L6.74824219,6.00117187 Z M16.4988281,3.74941406 L8.24941406,3.74941406 L8.24941406,12.0005859 L11.5136719,12.0005859 C11.9355469,11.1164062 12.8302734,10.5011719 13.8761719,10.5011719 C14.9220703,10.5011719 15.8167969,11.1164063 16.2386719,12.0005859 L16.2386719,12.0005859 L16.4988281,12.0005859 L16.4988281,3.74941406 Z M4.5,7.65175781 L4.5,9.15117188 L3.00058594,9.15117188 L3.00058594,7.65175781 L4.5,7.65175781 Z" id="形状结合" fill="#FF6D3B"></path>
            </g>
        </g>
    </g>
</svg>