<?xml version="1.0" encoding="UTF-8"?>
<svg width="48px" height="48px" viewBox="0 0 48 48" version="1.1" xmlns="http://www.w3.org/2000/svg" xmlns:xlink="http://www.w3.org/1999/xlink">
    <!-- Generator: Sketch 63.1 (92452) - https://sketch.com -->
    <title>icon48*48/我的事项</title>
    <desc>Created with Sketch.</desc>
    <g id="icon48*48/我的事项" stroke="none" stroke-width="1" fill="none" fill-rule="evenodd">
        <g>
            <circle id="椭圆形" fill="#4293F4" opacity="0.1" cx="24" cy="24" r="24"></circle>
            <g id="icon_信息公开目录" transform="translate(15.000000, 15.000000)" fill-rule="nonzero">
                <rect id="矩形" fill="#000000" opacity="0" x="0" y="0" width="18" height="18"></rect>
                <path d="M5.25,3 L16.5,3 L16.5,4.5 L5.25,4.5 L5.25,3 Z M1.5,3 L3,3 L3,4.5 L1.5,4.5 L1.5,3 Z M1.5,8.25 L3,8.25 L3,9.75 L1.5,9.75 L1.5,8.25 Z M5.25,8.25 L16.5,8.25 L16.5,9.75 L5.25,9.75 L5.25,8.25 Z M1.5,13.5 L3,13.5 L3,15 L1.5,15 L1.5,13.5 Z M5.25,13.5 L16.5,13.5 L16.5,15 L5.25,15 L5.25,13.5 Z" id="形状" fill="#4293F4"></path>
            </g>
        </g>
    </g>
</svg>