<?xml version="1.0" encoding="UTF-8"?>
<svg width="18px" height="18px" viewBox="0 0 18 18" version="1.1" xmlns="http://www.w3.org/2000/svg" xmlns:xlink="http://www.w3.org/1999/xlink">
    <!-- Generator: Sketch 63.1 (92452) - https://sketch.com -->
    <title>icon16*16/基本信息</title>
    <desc>Created with Sketch.</desc>
    <g id="icon16*16/基本信息" stroke="none" stroke-width="1" fill="none" fill-rule="evenodd">
        <g id="Members" fill-rule="nonzero">
            <rect id="矩形" fill="#000000" opacity="0" x="0" y="0" width="18" height="18"></rect>
            <path d="M14.4432292,6.33214286 C14.4450521,3.3875 12.0059896,1 9,1 C5.99401042,1 3.55494792,3.3875 3.55494792,6.33392857 C3.55494792,8.20357143 4.53932292,9.84642857 6.02682292,10.8 C3.64973958,11.8946429 2,14.2553571 2,17 L3.55494792,17 C3.55494792,14.0553571 5.9921875,11.6660714 9,11.6660714 C12.0078125,11.6660714 14.4450521,14.0553571 14.4450521,17 L16,17 C16,14.2553571 14.3502604,11.8946429 11.9713542,10.7982143 C13.4588542,9.84642857 14.4432292,8.20357143 14.4432292,6.33214286 Z M5.11171875,6.33392857 C5.11171875,4.23035714 6.85260417,2.525 9,2.525 C11.1473958,2.525 12.8882813,4.23035714 12.8882813,6.33392857 C12.8882813,8.4375 11.1473958,10.1428571 9,10.1428571 C6.85260417,10.1428571 5.11171875,8.4375 5.11171875,6.33392857 Z" id="形状" fill="#4293F4"></path>
        </g>
    </g>
</svg>