<?xml version="1.0" encoding="UTF-8"?>
<svg width="40px" height="40px" viewBox="0 0 40 40" version="1.1" xmlns="http://www.w3.org/2000/svg" xmlns:xlink="http://www.w3.org/1999/xlink">
    <!-- Generator: Sketch 63.1 (92452) - https://sketch.com -->
    <title>icon40*40/我的印章</title>
    <desc>Created with Sketch.</desc>
    <g id="icon40*40/我的印章" stroke="none" stroke-width="1" fill="none" fill-rule="evenodd">
        <g>
            <circle id="椭圆形" fill="#FAAD14" opacity="0.1" cx="20" cy="20" r="20"></circle>
            <rect id="矩形" fill="#000000" fill-rule="nonzero" opacity="0" x="12" y="12" width="16" height="16"></rect>
            <path d="M22.1420396,21.3069319 C22.1420396,20.5250216 22.2741012,19.8988014 22.5276596,19.417892 C23.3059428,18.725936 23.7637564,17.7416286 23.7637564,16.6846658 C23.7637564,14.6503151 22.0839325,13 20.0132062,13 C17.9424798,13 16.2626559,14.6503151 16.2626559,16.6846658 C16.2626559,17.7260596 16.7046222,18.6982578 17.4652971,19.3884839 C17.4811445,19.4057828 17.4987528,19.4230817 17.5181218,19.4403806 C17.9618489,19.8365254 18.1907557,20.440257 18.1907557,21.3069319 C18.1907557,22.0386754 17.743507,22.6994934 16.775055,23.3153342 L14,23.3153342 L14,27 L26,27 L26,23.3153342 L23.3094644,23.3153342 C22.5153338,22.6527864 22.1420396,21.9885086 22.1420396,21.3069319 Z M18.5957447,18.4128259 C18.5746148,18.3886074 18.5499633,18.3661189 18.5253118,18.3436303 C18.0428467,17.9267268 17.762876,17.3281849 17.762876,16.6846658 C17.762876,15.4633634 18.770066,14.4738663 20.0132062,14.4738663 C21.2563463,14.4738663 22.2635363,15.4633634 22.2635363,16.6846658 C22.2635363,17.3489435 21.9641966,17.9647844 21.4553191,18.3816879 C21.3884079,18.4370444 21.3303008,18.5027802 21.2862803,18.5771655 C20.8513573,19.3140986 20.6418195,20.2257506 20.6418195,21.305202 C20.6418195,22.0161868 20.8619222,22.6873842 21.2915627,23.3136043 L18.9954512,23.3136043 C19.4550257,22.7098727 19.6927366,22.0386754 19.6927366,21.305202 C19.6927366,20.0890893 19.3317682,19.1082417 18.5957447,18.4128259 Z M24.4997799,25.5278636 L15.5002201,25.5278636 L15.5002201,24.5278636 L24.5015407,24.5278636 L24.5015407,25.5278636 L24.4997799,25.5278636 Z" id="形状" fill="#FAAD14" fill-rule="nonzero"></path>
        </g>
    </g>
</svg>