<?xml version="1.0" encoding="UTF-8"?>
<svg width="40px" height="40px" viewBox="0 0 40 40" version="1.1" xmlns="http://www.w3.org/2000/svg" xmlns:xlink="http://www.w3.org/1999/xlink">
    <!-- Generator: Sketch 63.1 (92452) - https://sketch.com -->
    <title>icon40*40/我的证照</title>
    <desc>Created with Sketch.</desc>
    <g id="icon40*40/我的证照" stroke="none" stroke-width="1" fill="none" fill-rule="evenodd">
        <g>
            <circle id="椭圆形" fill="#4293F4" opacity="0.1" cx="20" cy="20" r="20"></circle>
            <rect id="矩形" fill="#000000" fill-rule="nonzero" opacity="0" x="12" y="12" width="16" height="16"></rect>
            <path d="M12,13.3333281 L28,13.3333281 L28,26.6666719 L12,26.6666719 L12,13.3333281 Z M13.3333281,14.6666719 L13.3333281,25.3333281 L26.6666719,25.3333281 L26.6666719,14.6666719 L13.3333281,14.6666719 Z M21.4255625,20.9207031 C22.7587969,21.414375 23.7585,22.5804219 24,24 L22.6188594,24 C22.3186875,22.8498437 21.26,22 20,22 C18.74,22 17.6813125,22.8498437 17.3811406,24 L16,24 C16.2415,22.5804219 17.2412031,21.414375 18.5744375,20.9207031 C17.8285,20.4479531 17.3333438,19.6151406 17.3333438,18.6666719 C17.3333281,17.1939062 18.5272344,16 20,16 C21.4727656,16 22.6666719,17.1939062 22.6666719,18.6666719 C22.6666719,19.6151406 22.1715,20.4479531 21.4255781,20.9207031 L21.4255625,20.9207031 Z M20,20 C20.736375,20 21.3333281,19.4030469 21.3333281,18.6666719 C21.3333281,17.9302813 20.736375,17.3333281 20,17.3333281 C19.263625,17.3333281 18.6666719,17.9302813 18.6666719,18.6666719 C18.6666719,19.4030469 19.263625,20 20,20 Z" id="形状" fill="#4293F4" fill-rule="nonzero"></path>
        </g>
    </g>
</svg>